<svg aria-hidden="true" style="position: absolute; width: 0; height: 0; overflow: hidden;" version="1.1" xmlns="http://www.w3.org/2000/svg" xmlns:xlink="http://www.w3.org/1999/xlink">
<defs>
<symbol id="icon-play" viewBox="0 0 24 24">
<title>play</title>
<path d="M8.016 5.016l10.969 6.984-10.969 6.984v-13.969z"></path>
</symbol>
<symbol id="icon-console" viewBox="0 0 24 24">
<title>console</title>
<path d="M12 6.984v-1.969h-9v1.969h9zM12 11.016v-2.016h-9v2.016h9zM21 3q0.797 0 1.406 0.609t0.609 1.406v13.969q0 0.797-0.609 1.406t-1.406 0.609h-18q-0.797 0-1.406-0.609t-0.609-1.406v-13.969q0-0.797 0.609-1.406t1.406-0.609h18z"></path>
</symbol>
<symbol id="icon-fork" viewBox="0 0 24 24">
<title>fork</title>
<path d="M9.984 3.984l-2.297 2.297 5.297 5.297v8.438h-1.969v-7.594l-4.734-4.734-2.297 2.297v-6h6zM14.016 3.984h6v6l-2.297-2.297-2.906 2.906-1.406-1.406 2.906-2.906z"></path>
</symbol>
<symbol id="icon-key" viewBox="0 0 24 24">
<title>key</title>
<path d="M6.984 14.016q0.797 0 1.406-0.609t0.609-1.406-0.609-1.406-1.406-0.609-1.383 0.609-0.586 1.406 0.586 1.406 1.383 0.609zM12.656 9.984h10.359v4.031h-2.016v3.984h-3.984v-3.984h-4.359q-0.609 1.641-2.273 2.813t-3.398 1.172q-2.484 0-4.242-1.758t-1.758-4.242 1.758-4.242 4.242-1.758q1.734 0 3.398 1.172t2.273 2.813z"></path>
</symbol>
<symbol id="icon-add" viewBox="0 0 24 24">
<title>add</title>
<path d="M18.984 12.984h-6v6h-1.969v-6h-6v-1.969h6v-6h1.969v6h6v1.969z"></path>
</symbol>
<symbol id="icon-close" viewBox="0 0 24 24">
<title>close</title>
<path d="M18.984 6.422l-5.578 5.578 5.578 5.578-1.406 1.406-5.578-5.578-5.578 5.578-1.406-1.406 5.578-5.578-5.578-5.578 1.406-1.406 5.578 5.578 5.578-5.578z"></path>
</symbol>
<symbol id="icon-edit" viewBox="0 0 24 24">
<title>edit</title>
<path d="M20.719 7.031l-1.828 1.828-3.75-3.75 1.828-1.828q0.281-0.281 0.703-0.281t0.703 0.281l2.344 2.344q0.281 0.281 0.281 0.703t-0.281 0.703zM3 17.25l11.063-11.063 3.75 3.75-11.063 11.063h-3.75v-3.75z"></path>
</symbol>
<symbol id="icon-undo" viewBox="0 0 24 24">
<title>undo</title>
<path d="M12.516 8.016q3.422 0 6.141 2.016t3.797 5.203l-2.344 0.75q-0.797-2.438-2.883-3.961t-4.711-1.523q-2.906 0-5.156 1.875l3.656 3.609h-9v-9l3.563 3.609q2.953-2.578 6.938-2.578z"></path>
</symbol>
<symbol id="icon-download" viewBox="0 0 24 24">
<title>download</title>
<path d="M5.016 18h13.969v2.016h-13.969v-2.016zM18.984 9l-6.984 6.984-6.984-6.984h3.984v-6h6v6h3.984z"></path>
</symbol>
<symbol id="icon-back" viewBox="0 0 24 24">
<title>back</title>
<path d="M20.016 11.016v1.969h-12.188l5.578 5.625-1.406 1.406-8.016-8.016 8.016-8.016 1.406 1.406-5.578 5.625h12.188z"></path>
</symbol>
<symbol id="icon-forward" viewBox="0 0 24 24">
<title>forward</title>
<path d="M12 3.984l8.016 8.016-8.016 8.016-1.406-1.406 5.578-5.625h-12.188v-1.969h12.188l-5.578-5.625z"></path>
</symbol>
<symbol id="icon-check" viewBox="0 0 24 24">
<title>check</title>
<path d="M9 16.172l10.594-10.594 1.406 1.406-12 12-5.578-5.578 1.406-1.406z"></path>
</symbol>
<symbol id="icon-menu" viewBox="0 0 24 24">
<title>menu</title>
<path d="M3 6h18v2.016h-18v-2.016zM3 12.984v-1.969h18v1.969h-18zM3 18v-2.016h18v2.016h-18z"></path>
</symbol>
<symbol id="icon-more" viewBox="0 0 24 24">
<title>more</title>
<path d="M12 15.984q0.797 0 1.406 0.609t0.609 1.406-0.609 1.406-1.406 0.609-1.406-0.609-0.609-1.406 0.609-1.406 1.406-0.609zM12 9.984q0.797 0 1.406 0.609t0.609 1.406-0.609 1.406-1.406 0.609-1.406-0.609-0.609-1.406 0.609-1.406 1.406-0.609zM12 8.016q-0.797 0-1.406-0.609t-0.609-1.406 0.609-1.406 1.406-0.609 1.406 0.609 0.609 1.406-0.609 1.406-1.406 0.609z"></path>
</symbol>
<symbol id="icon-refresh" viewBox="0 0 24 24">
<title>refresh</title>
<path d="M17.672 6.328l2.344-2.344v7.031h-7.031l3.234-3.234q-1.781-1.781-4.219-1.781-2.484 0-4.242 1.758t-1.758 4.242 1.758 4.242 4.242 1.758q1.734 0 3.398-1.172t2.273-2.813h2.063q-0.656 2.625-2.813 4.313t-4.922 1.688q-3.281 0-5.625-2.344t-2.344-5.672 2.344-5.672 5.625-2.344q1.406 0 3.070 0.68t2.602 1.664z"></path>
</symbol>
<symbol id="icon-share" viewBox="0 0 24 24">
<title>share</title>
<path d="M18 16.078q1.219 0 2.063 0.867t0.844 2.039q0 1.219-0.867 2.086t-2.039 0.867-2.039-0.867-0.867-2.086q0-0.469 0.047-0.656l-7.078-4.125q-0.891 0.797-2.063 0.797-1.219 0-2.109-0.891t-0.891-2.109 0.891-2.109 2.109-0.891q1.172 0 2.063 0.797l7.031-4.078q-0.094-0.469-0.094-0.703 0-1.219 0.891-2.109t2.109-0.891 2.109 0.891 0.891 2.109-0.891 2.109-2.109 0.891q-1.125 0-2.063-0.844l-7.031 4.125q0.094 0.469 0.094 0.703t-0.094 0.703l7.125 4.125q0.844-0.75 1.969-0.75z"></path>
</symbol>
<symbol id="icon-code" viewBox="0 0 24 24">
<title>code</title>
<path d="M14.578 16.594l4.641-4.594-4.641-4.594 1.406-1.406 6 6-6 6zM9.422 16.594l-1.406 1.406-6-6 6-6 1.406 1.406-4.641 4.594z"></path>
</symbol>
<symbol id="icon-delete" viewBox="0 0 24 24">
<title>delete</title>
<path d="M18.984 3.984v2.016h-13.969v-2.016h3.469l1.031-0.984h4.969l1.031 0.984h3.469zM6 18.984v-12h12v12q0 0.797-0.609 1.406t-1.406 0.609h-7.969q-0.797 0-1.406-0.609t-0.609-1.406z"></path>
</symbol>
<symbol id="icon-lock" viewBox="0 0 24 24">
<title>lock</title>
<path d="M15.094 8.016v-2.016q0-1.266-0.914-2.18t-2.18-0.914-2.18 0.914-0.914 2.18v2.016h6.188zM12 17.016q0.797 0 1.406-0.609t0.609-1.406-0.609-1.406-1.406-0.609-1.406 0.609-0.609 1.406 0.609 1.406 1.406 0.609zM18 8.016q0.797 0 1.406 0.586t0.609 1.383v10.031q0 0.797-0.609 1.383t-1.406 0.586h-12q-0.797 0-1.406-0.586t-0.609-1.383v-10.031q0-0.797 0.609-1.383t1.406-0.586h0.984v-2.016q0-2.063 1.477-3.539t3.539-1.477 3.539 1.477 1.477 3.539v2.016h0.984z"></path>
</symbol>
<symbol id="icon-lock_outline" viewBox="0 0 24 24">
<title>lock_outline</title>
<path d="M18 20.016v-10.031h-12v10.031h12zM18 8.016q0.797 0 1.406 0.586t0.609 1.383v10.031q0 0.797-0.609 1.383t-1.406 0.586h-12q-0.797 0-1.406-0.586t-0.609-1.383v-10.031q0-0.797 0.609-1.383t1.406-0.586h9.094v-2.016q0-1.266-0.914-2.18t-2.18-0.914-2.18 0.914-0.914 2.18h-1.922q0-2.063 1.477-3.539t3.539-1.477 3.539 1.477 1.477 3.539v2.016h0.984zM12 17.016q-0.797 0-1.406-0.609t-0.609-1.406 0.609-1.406 1.406-0.609 1.406 0.609 0.609 1.406-0.609 1.406-1.406 0.609z"></path>
</symbol>
<symbol id="icon-lock_closed" viewBox="0 0 24 24">
<title>lock_closed</title>
<path d="M18 20.016v-10.031h-12v10.031h12zM8.906 6v2.016h6.188v-2.016q0-1.266-0.914-2.18t-2.18-0.914-2.18 0.914-0.914 2.18zM18 8.016q0.797 0 1.406 0.586t0.609 1.383v10.031q0 0.797-0.609 1.383t-1.406 0.586h-12q-0.797 0-1.406-0.586t-0.609-1.383v-10.031q0-0.797 0.609-1.383t1.406-0.586h0.984v-2.016q0-2.063 1.477-3.539t3.539-1.477 3.539 1.477 1.477 3.539v2.016h0.984zM12 17.016q-0.797 0-1.406-0.609t-0.609-1.406 0.609-1.406 1.406-0.609 1.406 0.609 0.609 1.406-0.609 1.406-1.406 0.609z"></path>
</symbol>
<symbol id="icon-delete_outline" viewBox="0 0 24 24">
<title>delete_outline</title>
<path d="M15.516 3.984h3.469v2.016h-13.969v-2.016h3.469l1.031-0.984h4.969zM8.016 9v9.984h7.969v-9.984h-7.969zM6 18.984v-12h12v12q0 0.797-0.609 1.406t-1.406 0.609h-7.969q-0.797 0-1.406-0.609t-0.609-1.406z"></path>
</symbol>
</defs>
</svg>
